<?xml version="1.0" encoding="UTF-8"?> <svg xmlns="http://www.w3.org/2000/svg" width="292" height="345" viewBox="0 0 292 345" fill="none"> <path fill-rule="evenodd" clip-rule="evenodd" d="M36.647 36.125L0.0709991 72.25L0.0354996 136.125L0 200H36.25H72.5V136.25V72.5H136.75H201V36.25V0H137.111H73.223L36.647 36.125ZM164 154.75V164.5H165.912C166.963 164.5 169.944 164.862 172.537 165.306C175.129 165.749 179.111 166.649 181.384 167.306C183.658 167.963 187.619 169.483 190.186 170.682C192.753 171.882 196.201 173.779 197.849 174.897C199.497 176.016 202.111 178.089 203.658 179.503C205.205 180.917 207.521 183.463 208.806 185.161C210.09 186.86 212.123 190.275 213.323 192.75C214.522 195.225 216.114 199.5 216.859 202.25L218.215 207.25L218.384 239.625L218.553 272H145.527H72.5V308.25V344.5H145.226H217.953L254.726 308.197L291.5 271.895V208.447V145H227.75H164V154.75Z" fill="white"></path> </svg> 